<svg width="41" height="53" viewBox="0 0 41 53" fill="none" xmlns="http://www.w3.org/2000/svg">
<path d="M20.4165 23.3333C22.724 23.3333 24.9796 22.6491 26.8982 21.3672C28.8168 20.0852 30.3121 18.2631 31.1951 16.1313C32.0782 13.9995 32.3092 11.6537 31.859 9.39062C31.4089 7.12751 30.2977 5.0487 28.6661 3.41709C27.0345 1.78548 24.9557 0.674338 22.6926 0.224177C20.4295 -0.225984 18.0837 0.00505495 15.9519 0.888077C13.8201 1.7711 11.998 3.26645 10.7161 5.18502C9.43412 7.10359 8.74988 9.35922 8.74988 11.6667C8.74988 14.7609 9.97904 17.7283 12.167 19.9163C14.3549 22.1042 17.3224 23.3333 20.4165 23.3333ZM20.4165 5.83334C21.5703 5.83334 22.6981 6.17546 23.6574 6.81643C24.6167 7.45741 25.3643 8.36845 25.8058 9.43435C26.2474 10.5003 26.3629 11.6731 26.1378 12.8047C25.9127 13.9363 25.3571 14.9757 24.5413 15.7915C23.7255 16.6073 22.6861 17.1628 21.5546 17.3879C20.423 17.613 19.2501 17.4975 18.1842 17.056C17.1183 16.6145 16.2073 15.8668 15.5663 14.9075C14.9253 13.9482 14.5832 12.8204 14.5832 11.6667C14.5832 10.1196 15.1978 8.63584 16.2918 7.54188C17.3857 6.44792 18.8694 5.83334 20.4165 5.83334Z" fill="white"/>
<path d="M20.4165 29.1667C15.0017 29.1667 9.80865 31.3177 5.97978 35.1466C2.15091 38.9755 -0.00012207 44.1685 -0.00012207 49.5834C-0.00012207 50.3569 0.307169 51.0988 0.85415 51.6458C1.40113 52.1927 2.143 52.5 2.91654 52.5C3.69009 52.5 4.43196 52.1927 4.97894 51.6458C5.52592 51.0988 5.83321 50.3569 5.83321 49.5834C5.83321 45.7156 7.36966 42.0063 10.1046 39.2714C12.8395 36.5365 16.5488 35 20.4165 35C24.2843 35 27.9936 36.5365 30.7285 39.2714C33.4634 42.0063 34.9999 45.7156 34.9999 49.5834C34.9999 50.3569 35.3072 51.0988 35.8541 51.6458C36.4011 52.1927 37.143 52.5 37.9165 52.5C38.6901 52.5 39.432 52.1927 39.9789 51.6458C40.5259 51.0988 40.8332 50.3569 40.8332 49.5834C40.8332 44.1685 38.6822 38.9755 34.8533 35.1466C31.0244 31.3177 25.8314 29.1667 20.4165 29.1667Z" fill="white"/>
</svg>
