<svg width="50" height="50" viewBox="0 0 50 50" fill="none" xmlns="http://www.w3.org/2000/svg">
<path d="M39.5834 8.33328H10.4167C8.75915 8.33328 7.16943 8.99176 5.99733 10.1639C4.82523 11.336 4.16675 12.9257 4.16675 14.5833V35.4166C4.16675 37.0742 4.82523 38.6639 5.99733 39.836C7.16943 41.0081 8.75915 41.6666 10.4167 41.6666H39.5834C41.241 41.6666 42.8307 41.0081 44.0028 39.836C45.1749 38.6639 45.8334 37.0742 45.8334 35.4166V14.5833C45.8334 12.9257 45.1749 11.336 44.0028 10.1639C42.8307 8.99176 41.241 8.33328 39.5834 8.33328ZM38.1876 12.4999L25.0001 22.3958L11.8126 12.4999H38.1876ZM39.5834 37.4999H10.4167C9.86421 37.4999 9.33431 37.2805 8.94361 36.8898C8.55291 36.4991 8.33342 35.9691 8.33342 35.4166V15.1041L23.7501 26.6666C24.1107 26.9371 24.5493 27.0833 25.0001 27.0833C25.4509 27.0833 25.8895 26.9371 26.2501 26.6666L41.6668 15.1041V35.4166C41.6668 35.9691 41.4473 36.4991 41.0566 36.8898C40.6659 37.2805 40.136 37.4999 39.5834 37.4999Z" fill="white"/>
</svg>
