<svg width="38" height="40" viewBox="0 0 38 40" fill="none" xmlns="http://www.w3.org/2000/svg">
<path d="M21.9985 10.0016H23.9987C24.529 10.0021 25.0375 10.213 25.4125 10.5879C25.7875 10.9629 25.9984 11.4712 25.9989 12.0014V14.0013C25.9989 14.5317 26.2096 15.0403 26.5847 15.4154C26.9599 15.7904 27.4686 16.0011 27.9991 16.0011C28.5296 16.0011 29.0383 15.7904 29.4134 15.4154C29.7885 15.0403 29.9993 14.5317 29.9993 14.0013V12.0014C29.9977 10.4108 29.365 8.88568 28.24 7.76089C27.115 6.63611 25.5897 6.00351 23.9987 6.00192H21.9985C21.4681 6.00192 20.9593 6.21262 20.5842 6.58766C20.2091 6.9627 19.9984 7.47137 19.9984 8.00176C19.9984 8.53215 20.2091 9.04082 20.5842 9.41586C20.9593 9.79091 21.4681 10.0016 21.9985 10.0016ZM13.9978 28.0002H11.9976C11.4673 27.9997 10.9589 27.7888 10.5839 27.4139C10.2089 27.0389 9.99798 26.5306 9.99745 26.0003V24.0005C9.99745 23.4701 9.78671 22.9614 9.41161 22.5864C9.0365 22.2114 8.52775 22.0007 7.99726 22.0007C7.46678 22.0007 6.95803 22.2114 6.58292 22.5864C6.20782 22.9614 5.99708 23.4701 5.99708 24.0005V26.0003C5.99867 27.591 6.63138 29.1161 7.75636 30.2409C8.88133 31.3657 10.4067 31.9983 11.9976 31.9999H13.9978C14.5283 31.9999 15.037 31.7892 15.4122 31.4141C15.7873 31.0391 15.998 30.5304 15.998 30C15.998 29.4696 15.7873 28.961 15.4122 28.5859C15.037 28.2109 14.5283 28.0002 13.9978 28.0002ZM35.9998 26.0003C36.5303 26.0003 37.0391 25.7896 37.4142 25.4146C37.7893 25.0396 38 24.5309 38 24.0005C38 23.4701 37.7893 22.9614 37.4142 22.5864C37.0391 22.2114 36.5303 22.0007 35.9998 22.0007H29.9993V21.0007C29.9993 20.4703 29.7885 19.9617 29.4134 19.5866C29.0383 19.2116 28.5296 19.0009 27.9991 19.0009C27.4686 19.0009 26.9599 19.2116 26.5847 19.5866C26.2096 19.9617 25.9989 20.4703 25.9989 21.0007V22.0007H19.9984C19.4679 22.0007 18.9591 22.2114 18.584 22.5864C18.2089 22.9614 17.9982 23.4701 17.9982 24.0005C17.9982 24.5309 18.2089 25.0396 18.584 25.4146C18.9591 25.7896 19.4679 26.0003 19.9984 26.0003H30.3673C29.9152 27.8384 29.0803 29.5605 27.9171 31.0539C27.4404 30.4368 27.0187 29.779 26.657 29.0881C26.5419 28.8466 26.3795 28.6305 26.1795 28.4529C25.9794 28.2752 25.7457 28.1395 25.4923 28.0537C25.2388 27.9679 24.9707 27.9339 24.7038 27.9536C24.437 27.9733 24.1768 28.0464 23.9387 28.1684C23.7006 28.2905 23.4893 28.459 23.3176 28.6642C23.1458 28.8693 23.0169 29.1068 22.9386 29.3626C22.8602 29.6185 22.8341 29.8874 22.8615 30.1535C22.889 30.4196 22.9697 30.6775 23.0986 30.912C23.6379 31.9529 24.2812 32.9365 25.0188 33.8477C23.567 34.9015 21.9161 35.6493 20.1664 36.0456C19.6481 36.1588 19.196 36.4732 18.9096 36.9197C18.6232 37.3662 18.526 37.9082 18.6392 38.4264C18.7525 38.9446 19.067 39.3965 19.5136 39.6829C19.9601 39.9692 20.5022 40.0665 21.0205 39.9532C23.5301 39.3981 25.8842 38.2899 27.9111 36.7095C29.9551 38.2912 32.3251 39.3991 34.8497 39.9532C35.368 40.0673 35.9104 39.9708 36.3575 39.685C36.8046 39.3992 37.1199 38.9476 37.2339 38.4294C37.348 37.9112 37.2515 37.3689 36.9656 36.9219C36.6798 36.4748 36.2281 36.1596 35.7098 36.0456C33.9493 35.6542 32.2855 34.9129 30.8173 33.8657C32.6672 31.5898 33.9143 28.8849 34.4437 26.0003H35.9998ZM12.0576 18.4869C12.1896 18.9981 12.5184 19.4364 12.9722 19.7061C13.4261 19.9759 13.9682 20.0553 14.4804 19.927C14.9926 19.7987 15.4332 19.4732 15.7063 19.0213C15.9794 18.5695 16.0626 18.028 15.938 17.515L12.4237 3.45612C12.177 2.46899 11.6074 1.59263 10.8054 0.966397C10.0033 0.340162 9.0149 0 7.99726 0C6.97963 0 5.9912 0.340162 5.18916 0.966397C4.38711 1.59263 3.81749 2.46899 3.57086 3.45612L0.0565405 17.515C-0.0681075 18.028 0.0151766 18.5695 0.28823 19.0213C0.561283 19.4732 1.00195 19.7987 1.51413 19.927C2.02631 20.0553 2.56845 19.9759 3.02231 19.7061C3.47617 19.4364 3.80493 18.9981 3.93689 18.4869L5.057 14.0013H10.9375L12.0576 18.4869ZM6.05709 10.0016L7.45321 4.42804C7.49516 4.31774 7.56966 4.22279 7.66683 4.1558C7.76399 4.0888 7.87923 4.05293 7.99726 4.05293C8.11529 4.05293 8.23054 4.0888 8.3277 4.1558C8.42487 4.22279 8.49937 4.31774 8.54132 4.42804L9.93544 10.0016H6.05709Z" fill="white"/>
</svg>
