<svg width="25" height="24" viewBox="0 0 25 24" fill="none" xmlns="http://www.w3.org/2000/svg">
<path d="M22.4626 23.6744L13.9404 15.4698C13.2641 15.9907 12.4862 16.4031 11.607 16.707C10.7277 17.0108 9.79205 17.1628 8.80005 17.1628C6.3426 17.1628 4.263 16.3432 2.56127 14.704C0.859543 13.0648 0.00822675 11.0627 0.00732493 8.69766C0.00642312 6.33264 0.857739 4.33053 2.56127 2.69133C4.26481 1.05214 6.3444 0.232544 8.80005 0.232544C11.2557 0.232544 13.3357 1.05214 15.0402 2.69133C16.7446 4.33053 17.5955 6.33264 17.5928 8.69766C17.5928 9.6527 17.435 10.5535 17.1193 11.4C16.8037 12.2465 16.3753 12.9953 15.8342 13.6465L24.3564 21.8512L22.4626 23.6744ZM8.80005 14.5581C10.491 14.5581 11.9285 13.9886 13.1125 12.8495C14.2966 11.7104 14.8882 10.3264 14.8873 8.69766C14.8864 7.06889 14.2948 5.68538 13.1125 4.54715C11.9303 3.40892 10.4928 2.83893 8.80005 2.8372C7.10734 2.83546 5.67029 3.40544 4.48891 4.54715C3.30753 5.68885 2.71548 7.07236 2.71278 8.69766C2.71007 10.323 3.30212 11.7069 4.48891 12.8495C5.6757 13.992 7.11275 14.5616 8.80005 14.5581Z" fill="white"/>
</svg>
