<svg width="50" height="50" viewBox="0 0 50 50" fill="none" xmlns="http://www.w3.org/2000/svg">
<path d="M36.2501 45.8333C27.7444 45.8223 19.5903 42.4386 13.5759 36.4242C7.56151 30.4097 4.17777 22.2556 4.16675 13.75C4.16675 11.2083 5.17642 8.77077 6.97364 6.97354C8.77087 5.17632 11.2084 4.16665 13.7501 4.16665C14.2883 4.16255 14.8256 4.2114 15.3542 4.31248C15.8653 4.38811 16.3677 4.51371 16.8542 4.68748C17.1964 4.80755 17.5014 5.01485 17.7389 5.28888C17.9764 5.56292 18.1382 5.89421 18.2084 6.24998L21.0626 18.75C21.1395 19.0893 21.1302 19.4424 21.0356 19.7772C20.941 20.112 20.7641 20.4178 20.5209 20.6667C20.2501 20.9583 20.2292 20.9792 17.6667 22.3125C19.7188 26.8143 23.3192 30.4295 27.8126 32.5C29.1667 29.9167 29.1876 29.8958 29.4792 29.625C29.7281 29.3818 30.0339 29.2049 30.3687 29.1103C30.7035 29.0157 31.0566 29.0064 31.3959 29.0833L43.8959 31.9375C44.2403 32.0174 44.5587 32.1836 44.8211 32.4205C45.0835 32.6574 45.2813 32.9572 45.3959 33.2917C45.5718 33.7861 45.7042 34.295 45.7918 34.8125C45.8756 35.3361 45.9174 35.8656 45.9168 36.3958C45.8783 38.9266 44.8403 41.3394 43.0292 43.1076C41.2181 44.8757 38.7811 45.8556 36.2501 45.8333ZM13.7501 8.33332C12.3152 8.3388 10.9406 8.91125 9.92598 9.92588C8.91135 10.9405 8.3389 12.3151 8.33342 13.75C8.33893 21.1523 11.2819 28.2498 16.5161 33.484C21.7503 38.7182 28.8478 41.6611 36.2501 41.6667C37.685 41.6612 39.0595 41.0887 40.0742 40.0741C41.0888 39.0594 41.6613 37.6849 41.6668 36.25C41.6668 36.0208 41.6668 35.7917 41.6668 35.5625L32.0001 33.3333L31.3959 34.4792C30.4584 36.2917 29.7709 37.6042 28.0209 36.8958C24.5686 35.6601 21.4349 33.6709 18.8474 31.0727C16.26 28.4744 14.2839 25.3324 13.0626 21.875C12.3126 20.25 13.7292 19.5 15.5209 18.5625L16.6667 18L14.4376 8.33332H13.7501Z" fill="white"/>
</svg>
