<svg width="40" height="40" viewBox="0 0 40 40" fill="none" xmlns="http://www.w3.org/2000/svg">
<path d="M19.9997 18.3333C21.3182 18.3333 22.6071 17.9423 23.7035 17.2098C24.7998 16.4773 25.6543 15.4361 26.1589 14.2179C26.6635 12.9997 26.7955 11.6593 26.5382 10.3661C26.281 9.07286 25.6461 7.88497 24.7137 6.95262C23.7814 6.02027 22.5935 5.38534 21.3003 5.1281C20.0071 4.87087 18.6666 5.00289 17.4485 5.50747C16.2303 6.01206 15.1891 6.86654 14.4565 7.96287C13.724 9.0592 13.333 10.3481 13.333 11.6667C13.333 13.4348 14.0354 15.1305 15.2856 16.3807C16.5359 17.631 18.2316 18.3333 19.9997 18.3333Z" fill="#960F26"/>
<path d="M29.9997 35C30.4417 35 30.8656 34.8244 31.1782 34.5118C31.4907 34.1992 31.6663 33.7753 31.6663 33.3333C31.6663 30.2391 30.4372 27.2716 28.2493 25.0837C26.0613 22.8958 23.0939 21.6666 19.9997 21.6666C16.9055 21.6666 13.938 22.8958 11.7501 25.0837C9.56217 27.2716 8.33301 30.2391 8.33301 33.3333C8.33301 33.7753 8.5086 34.1992 8.82116 34.5118C9.13372 34.8244 9.55765 35 9.99967 35H29.9997Z" fill="#960F26"/>
</svg>
